<svg xmlns="http://www.w3.org/2000/svg" width="152" height="48" viewBox="0 0 152 48">
  <defs>
    <style>
      .cls-1 {
        fill: #fff;
        fill-rule: evenodd;
      }
    </style>
  </defs>
  <path class="cls-1" d="M280.241,126.488a10.853,10.853,0,0,0-10.085,6.6c-0.021-.145-0.044-0.29-0.075-0.435a6.132,6.132,0,0,0-.551-1.479,5.738,5.738,0,0,0-1.928-2.1,7.056,7.056,0,0,0-1.587-.812,10.889,10.889,0,0,0-4.809-.975c-1.56,0-3.121.062-4.712,0.062a2.975,2.975,0,0,1-1.255-.278,4.145,4.145,0,0,1-1.806-1.6,0.238,0.238,0,0,0-.122-0.124c-0.092,0-.061.093-0.061,0.154a3.806,3.806,0,0,0,.122,1.172,11.971,11.971,0,0,0,.735,2.527,5.727,5.727,0,0,0,1.254,1.941,5.275,5.275,0,0,0,2.877,1.171c0.064,0.011.123,0.016,0.182,0.022-0.019.023-.038,0.047-0.06,0.071a6.073,6.073,0,0,0-.411.5,6.515,6.515,0,0,1-.905-0.188,4.8,4.8,0,0,1-2.937-2.065c-0.031-.062-0.062-0.185-0.153-0.154s-0.062.154-.062,0.216v0.857c-0.059-.171-0.124-0.341-0.183-0.518a5.531,5.531,0,0,0-1.132-1.973,7.564,7.564,0,0,0-4.346-2.4,10.559,10.559,0,0,0-1.989-.185h-8.905c-0.337,0-.337,0-0.337.308v20.555c0,0.278,0,.278.306,0.278h4.131c0.337,0,.337,0,0.337-0.339v-5.825a0.2,0.2,0,0,1,.245-0.247h1.163a30.05,30.05,0,0,0,4.1-.123,10.651,10.651,0,0,0,1.071-.185,9.053,9.053,0,0,0,2.479-.986,6.45,6.45,0,0,0,3.06-3.849v11c0,0.277.031,0.308,0.337,0.339h1.408a4.13,4.13,0,0,0,2.081-.555A4.293,4.293,0,0,0,259,145.687a4.986,4.986,0,0,0,.551-1.079,13.153,13.153,0,0,0,.2-3.927,4.769,4.769,0,0,1,1.026-.273,2.048,2.048,0,0,1,1.222.872,18.68,18.68,0,0,0,1.163,1.572,8.73,8.73,0,0,0,1.683,1.51,7.144,7.144,0,0,1-3.611-2.989,0.975,0.975,0,0,0,0,.308c0.183,0.77.459,1.541,0.7,2.28a5.533,5.533,0,0,0,2.05,2.928,6.13,6.13,0,0,0,3.091,1.079,7.109,7.109,0,0,0,1.805-.093,6.834,6.834,0,0,0,1.928-.524,10.127,10.127,0,0,0,2.75-1.786,11.025,11.025,0,0,0,6.614,2.218A10.65,10.65,0,1,0,280.241,126.488Zm-31.061,8.536a3,3,0,0,1-1.316,1.572,3.99,3.99,0,0,1-2.2.555h-3.672a0.2,0.2,0,0,1-.245-0.247v-3.02c0-.986,0-2-0.061-2.959a0.225,0.225,0,0,1,.276-0.277c1.285,0,2.57-.031,3.856,0a3.778,3.778,0,0,1,2.6.894,2.628,2.628,0,0,1,.887,1.571A3.676,3.676,0,0,1,249.18,135.024Zm9.333,6.071a1.248,1.248,0,0,1-.5-0.1c0-.05,0-0.1.006-0.149,0.03-.432,0-0.863.061-1.295,0.061-.493.061-0.986,0.122-1.479,0.061-.37.061-0.74,0.123-1.079,0.091-.431.183-0.862,0.306-1.263a7.313,7.313,0,0,1,.734-1.572,6.077,6.077,0,0,1,1.53-1.664,10.8,10.8,0,0,1,2.081-1.2c0.4-.185.8-0.308,1.194-0.524a0.1,0.1,0,0,1,.153.031,5.006,5.006,0,0,1,.489,2.1,7.15,7.15,0,0,1-.03.8,6.374,6.374,0,0,1-.123.8,5.468,5.468,0,0,1-.642,1.51,4.445,4.445,0,0,1-1.408,1.418,13.039,13.039,0,0,1-1.5.647,6.534,6.534,0,0,0-1.315.647,1.612,1.612,0,0,0-.765,1.2,7.685,7.685,0,0,0,0,1.073A1.329,1.329,0,0,1,258.513,141.1Zm12.7,3.575a10.97,10.97,0,0,1-2.57-.863,21.5,21.5,0,0,1-3.55-2.25,6.132,6.132,0,0,0-2.265-1.263c0.276-.062.673-0.123,1.194-0.185,0.759-.119,1.232-0.186,1.552-0.232a3.449,3.449,0,0,0,.437-0.045,6.46,6.46,0,0,0,1.254-.4c0.153-.062.306-0.154,0.429-0.216a4.491,4.491,0,0,0,1.664-1.627,10.48,10.48,0,0,0,3.242,7.154A6.867,6.867,0,0,1,271.213,144.67Zm8.875-1.849a5.705,5.705,0,1,1,5.967-5.7A5.8,5.8,0,0,1,280.088,142.821ZM259.4,137.674a1.968,1.968,0,0,1,.275-0.647,6.361,6.361,0,0,1,1.5-1.51,9.754,9.754,0,0,0,1.56-1.417,3.988,3.988,0,0,0,.888-1.665,1.268,1.268,0,0,0,.092-0.462,0.251,0.251,0,0,0-.092.093,2.831,2.831,0,0,1-.276.524A6,6,0,0,1,262,134.038c-0.459.37-.979,0.709-1.408,1.109a4.69,4.69,0,0,0-.918,1.141,3.4,3.4,0,0,0-.336,1.078,1.012,1.012,0,0,0,0,.432A0.194,0.194,0,0,0,259.4,137.674Zm8.293-14.946c5.753,0,9.119-2.9,9.119-9.554V100.662a17.357,17.357,0,0,0-5.355,0v13.344c0,2.5-1.285,4.315-3.764,4.315s-3.764-1.818-3.764-4.315V100.662a17.364,17.364,0,0,0-5.356,0v12.512C258.574,119.831,261.941,122.728,267.694,122.728Zm10.19-22.066a11.873,11.873,0,0,0,0,4.407H283.7V122.2a16.77,16.77,0,0,0,5.263,0V105.069h5.784a11.873,11.873,0,0,0,0-4.407H277.884Zm34.642,7.119c0-4.222-3.305-7.119-8.079-7.119h-8.569v21.573a16.776,16.776,0,0,0,5.264,0v-7.3h2.081l4.712,7.3a19.811,19.811,0,0,0,5.723,0l-5.2-8.105A6.738,6.738,0,0,0,312.526,107.781Zm-8.079,2.743h-3.305V105.1h3.305A2.712,2.712,0,0,1,304.447,110.524Zm10.619-9.862v21.573a16.77,16.77,0,0,0,5.263,0V100.662A16.77,16.77,0,0,0,315.066,100.662Zm6.426,0a11.873,11.873,0,0,0,0,4.407h5.784V122.2a16.77,16.77,0,0,0,5.263,0V105.069h5.784a11.873,11.873,0,0,0,0-4.407H321.492Zm17.994,0v21.573a16.77,16.77,0,0,0,5.263,0V100.662A16.77,16.77,0,0,0,339.486,100.662Zm17.5-.493a11.28,11.28,0,1,0,11.354,11.28A11.034,11.034,0,0,0,356.99,100.169Zm0,18.152c-3.244,0-6-2.558-6-6.872s2.754-6.873,6-6.873,6,2.558,6,6.873S360.234,118.321,356.99,118.321Zm26.746-17.659V113.3l-9.976-12.636a10.372,10.372,0,0,0-4.131,0v21.573a16.77,16.77,0,0,0,5.263,0V109.6l9.977,12.635a10.372,10.372,0,0,0,4.131,0V100.662A16.776,16.776,0,0,0,383.736,100.662ZM242.662,121.773V109.137l9.976,12.636a10.372,10.372,0,0,0,4.131,0V100.2a16.764,16.764,0,0,0-5.264,0v12.635L241.529,100.2a10.364,10.364,0,0,0-4.131,0v21.573A16.776,16.776,0,0,0,242.662,121.773Z" transform="translate(-237 -100)"/>
</svg>
